<?xml version="1.0" encoding="utf-8"?>
<!-- Generator: Adobe Illustrator 27.1.1, SVG Export Plug-In . SVG Version: 6.00 Build 0)  -->
<svg version="1.1" id="Layer_1" xmlns="http://www.w3.org/2000/svg" xmlns:xlink="http://www.w3.org/1999/xlink" x="0px" y="0px"
	 viewBox="0 0 100 34.7" style="enable-background:new 0 0 100 34.7;" xml:space="preserve">
<style type="text/css">
	.st0{fill:#F42A41;}
	.st1{fill:#006A4E;}
	.st2{fill:#016B4F;}
	.st3{fill:#F42B42;}
	.st4{fill:#F87B8A;}
	.st5{fill:#8FBEB1;}
	.st6{fill:#FEFFFF;}
	.st7{fill:#F64F62;}
</style>
<g>
	<path class="st0" d="M98.3,30.3c0,0.4,0,0.9,0,1.3c-0.1,0-0.1,0-0.2,0c-26.8,0-53.6,0-80.4,0c-0.1,0-0.2,0-0.3,0c0,0,0,0,0,0
		c-0.2,0.1-0.4,0.1-0.6,0.2c-0.4,0.1-0.9,0.2-1.3,0.2c-0.4,0.1-0.7,0.1-1.1,0.1c-0.2,0-0.4,0-0.5,0c-0.1,0-0.2,0-0.4,0
		c-0.1,0-0.2,0-0.2,0c-0.3,0-0.5,0-0.8,0c-0.1,0-0.2,0-0.3,0c-0.5,0-1-0.1-1.4-0.1C10,32.1,9.3,32,8.5,31.8
		c-0.4-0.1-0.7-0.1-1.1-0.1c-0.4,0-0.8,0-1.3,0c0-0.1,0-0.3,0-0.4c0-0.4,0-0.9,0-1.3c0-0.6,0.1-1.1,0.1-1.7c0-0.1,0-0.2,0-0.3
		c0-0.1,0-0.1,0-0.2c0-0.2,0-0.4,0-0.6c0,0,0,0,0-0.1c0-0.4,0-0.9,0.1-1.3c0-0.3,0-0.5,0.1-0.8c0-0.3,0.1-0.6,0.1-0.9
		c0-0.2,0-0.5,0-0.7c0-0.2,0-0.3,0-0.5c0-0.1,0-0.2-0.1-0.2c-0.4-0.3-0.8-0.6-1.1-1C5.2,21.5,5,21.3,4.8,21
		c-0.2-0.2-0.3-0.3-0.5-0.5c-0.4-0.4-0.6-0.8-0.7-1.3c0-0.2-0.1-0.4-0.2-0.6c0-0.1,0-0.2-0.1-0.2C3.2,18,3.1,17.5,3,17.1
		c-0.1-0.4-0.2-0.9-0.3-1.3c0-0.3,0-0.5-0.1-0.8c0,0,0-0.1,0-0.1c0,0,0-0.1,0-0.1c0-0.3,0.1-0.6,0.2-0.9C2.8,13.9,2.9,14,3,14
		c0.3,0.3,0.7,0.5,1,0.8c0.4,0.3,0.8,0.7,1.2,1c0.2,0.2,0.5,0.4,0.8,0.6c0.1,0.1,0.2,0.2,0.3,0.3c0.2,0.1,0.2,0.2,0.4,0
		c0.3-0.2,0.7-0.5,1-0.7c0.4-0.3,0.8-0.5,1.3-0.8c0,0,0.1,0,0.1-0.1c0,0,0,0,0,0c0.2-0.1,0.4-0.2,0.7-0.3c0.3-0.1,0.6-0.1,0.9-0.1
		c0.5-0.1,1-0.2,1.5-0.2c0,0,0,0,0.1,0c0.3,0,0.5-0.1,0.8-0.1c0.2,0,0.3,0,0.5,0c0.3,0,0.6,0,0.8-0.1c-0.3,0.2-0.7,0.4-1,0.7
		c-0.3,0.2-0.6,0.5-0.9,0.7c-0.5,0.5-1,1-1.5,1.5c-0.2,0.2-0.4,0.5-0.6,0.8c-0.2,0.3-0.4,0.6-0.6,0.8c-0.3,0.6-0.6,1.3-0.7,2
		c-0.1,0.4-0.1,0.8-0.1,1.2c0,0.1,0.1,0.2,0.2,0.2c0.6,0.2,1.1,0.3,1.7,0.1c0,0,0.1,0,0.1,0c0,0,0.1,0,0.2,0
		c-0.4,2.1-0.9,4.1-1.3,6.1c0,0,0,0,0,0c0,0,0-0.1,0.1-0.1c0.2-0.5,0.4-1.1,0.6-1.6c0.1-0.3,0.2-0.6,0.3-0.9c0.1-0.3,0.3-0.7,0.4-1
		c0.1-0.3,0.2-0.6,0.3-0.9c0.2-0.6,0.4-1.1,0.6-1.7c0.1-0.2,0.2-0.5,0.3-0.7c-0.5-0.1-1-0.1-1.6-0.2c-0.2,0-0.5,0-0.7-0.1
		c-0.2,0-0.3-0.2-0.2-0.3c0-0.2,0-0.4,0.1-0.5c0.1-0.2,0.1-0.5,0.2-0.7c0.2-0.4,0.3-0.7,0.5-1.1c0.2-0.4,0.5-0.8,0.8-1.2
		c0.2-0.2,0.4-0.4,0.6-0.6c0.3-0.3,0.6-0.6,1-0.9c0.5-0.4,0.9-0.7,1.4-1.1c0.4-0.3,0.8-0.6,1.2-0.8c0.3-0.2,0.7-0.3,1.1-0.5
		c0.4-0.2,0.7-0.2,1.1-0.2c0.2,0,0.4-0.1,0.6-0.1c0.2,0,0.3,0,0.5-0.1c0.2,0,0.4-0.1,0.7-0.1c0,0,0.1,0,0.2,0c-0.1,0-0.1,0-0.2,0
		c-0.4-0.1-0.8-0.1-1.2-0.2c-0.3-0.1-0.5-0.3-0.6-0.6c0-0.1,0-0.2,0-0.3c0.1-0.3,0.3-0.6,0.4-1c0.1-0.1,0.1-0.3,0.2-0.4
		c0,0,0-0.1,0-0.2c-0.1,0.1-0.1,0.1-0.2,0.1c-0.3,0.3-0.6,0.6-0.9,0.8c-0.2,0.2-0.5,0.3-0.8,0.5c-0.3,0.2-0.5,0.1-0.8,0.1
		c0,0,0,0-0.1,0c-0.4-0.1-0.9-0.1-1.3-0.3c-0.5-0.1-0.9-0.4-1.3-0.6c-0.1,0-0.2-0.1-0.3-0.1c-0.2-0.1-0.3-0.2-0.3-0.4
		c0-0.4-0.1-0.8-0.2-1.2c0-0.2,0-0.5,0-0.7c0-0.1,0.1-0.2,0.2-0.2c0.3-0.1,0.5-0.1,0.8-0.2c0.2-0.1,0.4-0.1,0.6-0.2
		c0.3-0.1,0.6-0.2,0.9-0.3c0.5-0.1,1-0.3,1.4-0.4c0.3-0.1,0.5-0.2,0.8-0.3c0.5-0.2,1.1-0.3,1.6-0.4c0.2-0.1,0.5-0.2,0.7-0.2
		c0.6-0.2,1.2-0.2,1.7,0.1c0.1,0.1,0.2,0.2,0.3,0.3c0.1,0.1,0.1,0.3,0.2,0.4c0.2,0.6,0.4,1.2,0.6,1.8c0.2,0.5,0.3,0.9,0.5,1.4
		c0.1,0.3,0.2,0.6,0.3,0.9c0.1,0.4,0.2,0.8,0.3,1.1c0.1,0.4,0.3,0.7,0.4,1.1c0,0.1,0,0.3,0.1,0.4c0.1,0.2,0.1,0.5,0.2,0.7
		c0.1,0.3,0.1,0.5-0.1,0.7c-0.5,0.5-0.9,0.9-1.4,1.4c-0.7,0.7-1.5,1.5-2.2,2.2c-0.6,0.6-1.2,1.2-1.8,1.8c-0.3,0.3-0.6,0.6-1,0.9
		c-0.1,0.1-0.2,0.3-0.1,0.5c0,0.3,0.1,0.5,0.1,0.8c0.1,0.5,0.1,0.9,0.1,1.4c0,0.2,0,0.4,0,0.6c0,0.4,0.1,0.7,0.1,1.1
		c0,0.3,0.1,0.6,0.1,0.9c0,0.4,0.1,0.8,0.1,1.2c0,0.3,0,0.5,0.1,0.8c0,0.3,0.1,0.6,0.1,0.9c0,0.2,0.1,0.4,0.1,0.7c0.1,0,0.1,0,0.2,0
		c26.5,0,52.9,0,79.4,0C98.1,30.3,98.2,30.3,98.3,30.3C98.3,30.3,98.3,30.3,98.3,30.3z"/>
	<path class="st1" d="M68.5,20.4c-0.1-0.1-0.2-0.1-0.4-0.2c-0.2-0.1-0.4-0.2-0.6-0.3c-0.4-0.1-0.8-0.3-1.2-0.4
		c-0.3-0.1-0.6-0.1-1-0.2c-0.6-0.1-1.1-0.1-1.7-0.1c0,0-0.1,0-0.1,0c0.2-0.3,0.4-0.6,0.5-1c-0.4,0-0.8,0-1.2,0c0-0.7,0-1.3,0-2
		c0.1,0,0.1,0,0.2,0c4.3,0,8.6,0,12.9,0c0.4,0,0.8,0.1,1.2,0.3c0,0,0,0,0.1,0c0-0.4,0-0.9,0-1.3c0.7,0,1.3,0,2,0c0,0.3,0,0.6,0,0.9
		c6.4,0,12.8,0,19.2,0c0,0.7,0,1.3,0,2c-2.2,0-4.4,0-6.6,0c0.1,0.3,0.1,0.5,0.2,0.7c0.3,0.7,0.8,1.1,1.6,1.3c0.4,0.1,0.9,0,1.3-0.2
		c0.5-0.2,0.9-0.5,1.3-0.8c0.4,0.5,0.9,1,1.3,1.5c-0.2,0.2-0.4,0.4-0.6,0.6c-0.5,0.6-0.9,1.3-1.2,2.1c-0.2,0.5-0.3,0.9-0.4,1.4
		c-0.1,0.4-0.1,0.8,0,1.3c0,0.4,0.1,0.8,0.4,1.1c0.2,0.3,0.5,0.6,0.9,0.7c0,0,0.1,0,0.1,0c0,0,0,0,0,0c-0.1,0.2-0.2,0.5-0.2,0.7
		c-0.1,0.4-0.3,0.7-0.4,1.1c0,0.1-0.1,0.1-0.1,0.1c-0.5-0.2-1-0.5-1.4-0.9c-0.3-0.4-0.6-0.8-0.8-1.2c-0.2-0.4-0.3-0.8-0.3-1.2
		c0-0.4-0.1-0.8-0.1-1.1c0-0.6,0.1-1.2,0.3-1.8c0.1-0.4,0.3-0.9,0.5-1.3c-1,0-1.9-0.3-2.7-0.9c-0.8-0.7-1.2-1.5-1.4-2.6
		c-0.2,0.2-0.4,0.4-0.6,0.6c-0.2,0.3-0.5,0.6-0.6,0.9c-0.2,0.3-0.3,0.6-0.3,1c-0.1,0.7,0.3,1.2,1,1.4c0.3,0.1,0.6,0,0.8,0
		c0.5-0.1,1-0.2,1.4-0.4c0.1,0,0.2,0,0.2,0.1c0.2,0.5,0.5,1,0.7,1.5c0.1,0.3,0.2,0.6,0.2,0.9c0,0.6,0,1.1-0.2,1.6
		C92,27,91.6,27.6,91,28c-0.4,0.3-0.9,0.5-1.4,0.5c-0.3,0-0.7,0.1-1,0.1c-0.6,0-1.1-0.2-1.6-0.4c-0.6-0.2-1.1-0.5-1.6-0.9
		c-0.3-0.2-0.5-0.4-0.8-0.6c-0.2-0.2-0.4-0.4-0.6-0.6c-0.5-0.6-1-1.2-1.4-1.9c-0.3-0.5-0.5-1-0.7-1.4c-0.2-0.3-0.3-0.7-0.5-1.1
		c0.5-0.2,0.9-0.3,1.4-0.5c0.1,0,0.2-0.1,0.4-0.1c0.1,0,0.1,0,0.2,0.1c0.4,0.9,0.8,1.8,1.4,2.7c0.7,1,1.5,1.8,2.6,2.3
		c0.6,0.3,1.2,0.5,1.9,0.5c0.5,0,1-0.2,1.3-0.7c0.1-0.2,0.2-0.4,0.2-0.7c0-0.2,0-0.3,0-0.5c-0.2,0-0.3,0-0.5,0c-0.3,0-0.7,0-1,0
		c-0.6-0.1-1.1-0.3-1.6-0.6c-0.5-0.3-0.8-0.8-1-1.3c-0.1-0.3-0.2-0.7-0.3-1.1c-0.1-0.7,0.1-1.4,0.4-2c0.2-0.5,0.4-0.9,0.8-1.3
		c0,0,0-0.1,0.1-0.1c-2.8,0-5.5,0-8.3,0c0,3.6,0,7.1,0,10.7c-0.7,0-1.3,0-2,0c0,0,0,0,0,0c0-3.2,0-6.4,0-9.6c0-0.2-0.1-0.4-0.3-0.6
		c-0.3-0.4-0.7-0.5-1.1-0.5c-0.4,0-0.9,0-1.3,0c0,0.1,0,0.1,0,0.2c0,3.5,0,6.9,0,10.4c0,0.1,0,0.1,0,0.2c0,0,0,0,0,0
		c-0.6,0-1.3,0-1.9,0c-0.1-0.7-0.5-1.2-1.1-1.6c-0.3-0.2-0.5-0.4-0.8-0.6c-0.5-0.3-1-0.6-1.6-0.8c-0.5-0.2-1-0.4-1.6-0.5
		c-0.3-0.1-0.7-0.1-1-0.2c-0.4-0.1-0.9-0.1-1.3-0.1c-0.3,0-0.7,0-1,0c-0.1,0-0.1,0-0.2,0c0,0,0-0.1,0-0.1c0-0.5,0-1,0-1.5
		c0-0.1,0-0.1,0-0.2c0.4-0.5,0.8-0.9,1.3-1.3c0.4-0.3,0.8-0.6,1.3-0.8c0.4-0.2,0.8-0.4,1.2-0.6C67.9,20.6,68.2,20.6,68.5,20.4
		C68.5,20.5,68.5,20.5,68.5,20.4C68.5,20.4,68.5,20.4,68.5,20.4z M72.5,18.3c-1.2,0-2.4,0-3.7,0c0.1,0,0.1,0.1,0.2,0.1
		c0.8,0.4,1.5,1,2.1,1.7c0.1,0.1,0.2,0.2,0.2,0.3c0.1,0.4,0.2,0.9,0.3,1.3c0.1,0.3,0.1,0.3-0.2,0.3c0,0,0,0-0.1,0
		c-0.4,0-0.7,0.1-1.1,0.1c-0.7,0.1-1.3,0.2-1.9,0.5c-0.5,0.2-1,0.5-1.5,0.9c2.1,0.3,4,1,5.7,2.3C72.5,23.3,72.5,20.8,72.5,18.3z"/>
	<path class="st1" d="M24.2,18.3c0-0.7,0-1.3,0-2c0.1,0,0.1,0,0.2,0c6.1,0,12.2,0,18.2,0c0.4,0,0.8,0,1.2,0.2
		c0.2,0.1,0.3,0.1,0.5,0.1c0-0.4,0-0.8,0-1.3c0.7,0,1.3,0,2,0c0,0.3,0,0.6,0,0.9c0.5,0,1,0,1.6,0c0,0.7,0,1.3,0,2c-0.5,0-1,0-1.6,0
		c0,3.6,0,7.2,0,10.7c-0.7,0-1.3,0-2,0c0-0.1,0-0.1,0-0.2c0-3.1,0-6.2,0-9.3c0-0.3-0.2-0.6-0.4-0.8c-0.2-0.2-0.5-0.4-0.8-0.4
		c-0.3,0-0.5-0.1-0.8-0.1c-0.2,0-0.5,0-0.7,0c0,3.6,0,7.2,0,10.7c-0.7,0-1.3,0-2,0c0-0.4,0-0.9,0-1.3c0-0.1,0-0.2-0.1-0.3
		c-0.3-0.3-0.6-0.6-0.9-0.8c-0.3-0.2-0.6-0.4-0.9-0.7c-0.1,0.2-0.3,0.4-0.4,0.6c-0.3,0.4-0.8,0.8-1.3,1.1c-0.5,0.3-1.1,0.5-1.7,0.6
		c-0.3,0.1-0.6,0.1-0.8,0.1c-0.2,0-0.4,0-0.6,0c-0.3,0-0.7,0-1-0.1c-0.5-0.1-0.9-0.2-1.4-0.4c-0.9-0.3-1.8-0.8-2.6-1.4
		c-0.5-0.4-0.9-0.8-1.4-1.3c-0.5-0.5-0.9-1.1-1.2-1.8c0-0.1-0.1-0.2-0.2-0.3c0.6-0.3,1.2-0.6,1.8-0.8c0.1,0.1,0.1,0.2,0.2,0.3
		c0.2,0.3,0.5,0.7,0.7,1c0.3,0.3,0.5,0.6,0.8,0.9c0.3,0.3,0.7,0.6,1.1,0.8c0.4,0.2,0.8,0.4,1.2,0.6c0.4,0.2,0.8,0.2,1.2,0.4
		c0.1,0,0.3,0,0.5,0.1c0,0,0,0,0,0c0.2-0.1,0.3,0,0.5,0c0.2,0,0.3,0,0.5,0c0.5-0.1,1-0.2,1.4-0.4c0.4-0.2,0.7-0.5,1-0.9
		c0.3-0.4,0.4-0.9,0.3-1.4c0-0.2-0.1-0.5-0.2-0.7c-0.1-0.3-0.2-0.5-0.4-0.7c-0.2-0.3-0.5-0.5-0.8-0.7c-0.3-0.2-0.7-0.4-1.1-0.5
		c-0.4-0.1-0.8-0.2-1.2-0.1c-0.3,0-0.6,0.1-0.8,0.2c-0.2,0.1-0.4,0.3-0.4,0.5c-0.1,0.2,0,0.3,0,0.5c0.1,0.2,0.2,0.3,0.4,0.4
		c0.4,0.2,0.9,0.2,1.3,0.1c0.1,0,0.2-0.1,0.4-0.1c0.1,0,0.3,0,0.4,0c0,0,0.1,0.1,0.1,0.1c0.1,0.6,0.3,1.2,0.4,1.7c0,0,0,0.1-0.1,0.1
		c-0.2,0.1-0.4,0.1-0.6,0.2c-0.1,0-0.1,0-0.2,0c-0.2,0-0.3,0-0.5,0c-0.3,0-0.7,0-1,0c-0.3,0-0.5-0.1-0.8-0.2c-0.2,0-0.3-0.1-0.5-0.2
		c-0.1,0-0.1-0.1-0.2-0.1c-0.2-0.1-0.4-0.2-0.5-0.4c-0.2-0.2-0.5-0.5-0.6-0.8c-0.1-0.2-0.1-0.4-0.2-0.7c-0.1-0.3,0-1,0.1-1.3
		c0.2-0.5,0.5-0.9,1-1.2c0.4-0.3,0.8-0.5,1.3-0.6c0.1,0,0.1-0.1,0.1-0.1c-0.1-0.2-0.2-0.3-0.2-0.5c0-0.1-0.1-0.2-0.2-0.2
		c-2.4,0-4.8,0-7.2,0C24.3,18.3,24.3,18.3,24.2,18.3z M39.6,18.3c-1.9,0-3.8,0-5.7,0c0.1,0.2,0.1,0.5,0.2,0.7c0,0,0.1,0.1,0.1,0.1
		c0.3,0.1,0.7,0.2,1,0.3c1.9,0.9,3,2.3,3.1,4.4c0,0.1,0,0.1,0.1,0.1c0.3,0.2,0.6,0.5,0.9,0.7c0.1,0.1,0.2,0.1,0.3,0.2
		C39.6,22.7,39.6,20.5,39.6,18.3z"/>
	<path class="st2" d="M51.6,24.3c0.5,0.5,1.1,1,1.7,1.4c0.6,0.4,1.2,0.7,1.9,1c0.5,0.2,1,0.3,1.5,0.4c0.8,0.1,1.7,0,2.4-0.3
		c0.4-0.1,0.7-0.4,1-0.7c0.2-0.2,0.2-0.4,0.3-0.7c0-0.3,0-0.6-0.2-0.9c-0.3-0.5-0.7-0.6-1.2-0.3c-0.5,0.3-0.9,0.7-1.3,1.1
		c0,0,0,0,0,0c-0.5-0.4-1-0.8-1.5-1.2c0.5-0.5,0.8-1,1.2-1.6c0.3-0.5,0.6-1.1,0.7-1.7c0.1-0.5,0.1-0.9,0-1.4c-0.1-0.6-0.6-1-1.1-1
		c-1-0.1-1.9,0.2-2.7,0.8c-0.4,0.4-0.8,0.8-0.9,1.3c-0.1,0.3,0,0.8,0.2,0.9c0.2,0.1,0.4,0.1,0.7,0c0.4-0.2,0.8-0.3,1.1-0.6
		c0.1-0.1,0.1,0,0.2,0c0.3,0.4,0.6,0.7,0.9,1.1c0.1,0.1,0.2,0.2,0.3,0.3c-0.3,0.3-0.6,0.4-0.9,0.6c-0.3,0.2-0.6,0.3-0.9,0.4
		c-0.5,0.2-1.1,0.2-1.7,0.1c-0.6-0.2-1-0.6-1.4-1.1c-0.1-0.1-0.2-0.3-0.3-0.4c-0.1-0.1-0.1-0.3-0.1-0.4c0-0.3,0-0.7,0-1
		c0-0.2,0.1-0.5,0.1-0.7c0.2-0.5,0.5-1,0.8-1.4c0.5-0.5,1-1,1.6-1.3c0.3-0.2,0.7-0.3,1.1-0.4c0.3-0.1,0.6-0.2,1-0.2
		c0.6-0.1,1.3,0,1.9,0.2c0.4,0.1,0.6,0.3,0.9,0.6c0.4,0.3,0.7,0.7,0.9,1.2c0.1,0.3,0.2,0.6,0.3,0.9c0,0.3,0,0.6,0,0.9
		c0,0.6-0.1,1.2-0.4,1.8c0,0,0,0.1,0,0.1c0.3,0.1,0.6,0.1,0.8,0.2c0.4,0.1,0.8,0.4,1,0.7c0.1,0.1,0.2,0.3,0.4,0.4
		c0,0.1,0,0.1,0.1,0.2c0.1,0.2,0.2,0.5,0.3,0.7c0.1,0.2,0.1,0.4,0.1,0.6c0,0.1,0,0.1,0,0.2c0,0.1,0,0.3,0,0.4c0,0.1-0.1,0.3-0.1,0.4
		c-0.3,1.2-1,2-2.1,2.5c-0.5,0.2-0.9,0.4-1.4,0.5C58.4,29,58.1,29,57.8,29c-0.4,0-0.9,0-1.3-0.1c-0.2,0-0.5,0-0.7-0.1
		c-0.4-0.1-0.8-0.2-1.2-0.3c-0.5-0.2-0.9-0.3-1.4-0.6c-0.4-0.2-0.8-0.5-1.2-0.7c-0.4-0.3-0.8-0.6-1.1-0.9c-0.3-0.3-0.6-0.5-0.9-0.9
		c-0.4-0.4-0.7-0.8-1-1.2c-0.2-0.2-0.3-0.5-0.5-0.7c0,0-0.1-0.1-0.1-0.2c0.6-0.4,1.1-0.7,1.7-1.1c0.3,0.3,0.5,0.7,0.8,1
		c0.2,0.2,0.3,0.4,0.5,0.5C51.4,24.1,51.5,24.2,51.6,24.3z"/>
	<path class="st3" d="M9.4,14.2c-0.2,0-0.4,0-0.5-0.2c-0.2-0.3-0.5-0.5-0.7-0.8C8,13,7.8,12.7,7.7,12.5c-0.4-0.5-0.7-0.9-1.1-1.4
		c-0.3-0.4-0.7-0.9-1-1.4c-0.2-0.3-0.4-0.6-0.6-1C5,8.7,5,8.6,4.9,8.5C4.8,8.3,4.9,8.1,5,8c0.3-0.5,0.8-0.9,1.3-1.2
		c0.5-0.4,1.1-0.6,1.7-0.8c0.3-0.1,0.4-0.1,0.6,0.2c0.4,0.6,0.7,1.1,1.1,1.7c0.2,0.4,0.5,0.8,0.7,1.2c0.2,0.4,0.4,0.7,0.7,1.1
		c0.3,0.4,0.5,0.8,0.7,1.3c0.2,0.4,0.5,0.8,0.7,1.3c0.2,0.3,0.3,0.5,0.5,0.8c0.1,0.1,0.1,0.2-0.1,0.2c-0.3,0.1-0.7,0.1-1,0.2
		c-0.4,0.1-0.9,0.1-1.4,0.2c-0.3,0-0.5,0.1-0.8,0.1C9.6,14.2,9.5,14.2,9.4,14.2z"/>
	<path class="st3" d="M1.7,11.5c0-0.2,0.1-0.4,0.2-0.5c0.2-0.3,0.4-0.6,0.7-0.8c0.4-0.4,0.8-0.8,1.3-1.1c0.3-0.1,0.7,0,0.9,0.3
		C5,9.7,5.2,10,5.4,10.3c0.2,0.3,0.4,0.5,0.6,0.8c0.5,0.6,1,1.3,1.4,1.9c0.4,0.5,0.7,1,1.1,1.5c0.1,0.1,0.1,0.3,0,0.4
		C8.5,15,8.4,15,8.3,15.1c-0.2,0.2-0.5,0.4-0.7,0.6C7.3,15.8,7.1,16,6.8,16c-0.2,0.1-0.4-0.1-0.6-0.2c-0.3-0.2-0.5-0.4-0.8-0.6
		c-0.4-0.3-0.7-0.6-1.1-0.9c-0.3-0.2-0.6-0.5-0.8-0.7c-0.2-0.2-0.4-0.3-0.6-0.5c-0.3-0.3-0.5-0.5-0.8-0.8C2,12.1,1.9,12,1.7,11.8
		C1.7,11.7,1.7,11.6,1.7,11.5z"/>
	<path class="st3" d="M11.7,9.9c-0.3-0.4-0.5-0.8-0.8-1.2C10.6,8.2,10.2,7.6,9.8,7C9.5,6.6,9.3,6.2,9.1,5.8C8.9,5.6,8.9,5.4,9,5.3
		C9.2,5.2,9.3,5.1,9.5,5c0.2-0.2,0.5-0.4,0.8-0.5c0.1-0.1,0.2-0.1,0.3-0.1c0.6-0.2,1.1-0.4,1.7-0.6c0.1,0,0.2,0,0.3-0.1
		c0,0,0,0,0.1,0c0.1,0,0.3,0,0.4,0c0.1,0,0.2,0,0.2,0.1c0.1,0.1,0.1,0.3,0.2,0.4c0.1,0.2,0.2,0.5,0.3,0.7C13.9,5.2,14,5.6,14.2,6
		c0.2,0.3,0.3,0.6,0.5,0.9c0,0.1,0.1,0.2,0.1,0.2c0,0-0.1,0.1-0.1,0.1c-0.3,0.1-0.7,0.2-1,0.3c-0.3,0.1-0.7,0.2-1,0.3
		C12.4,7.9,12.2,8,12,8.1c-0.1,0-0.2,0.2-0.2,0.3c0,0.4,0,0.8,0.1,1.2c0,0.1,0,0.2,0,0.3c0,0,0,0.1,0,0.1c0,0,0,0.1,0,0.1
		C11.8,10.1,11.8,10,11.7,9.9C11.8,10,11.7,10,11.7,9.9z"/>
	<path class="st3" d="M15.3,6.6c-0.2-0.5-0.5-0.9-0.7-1.4c-0.2-0.4-0.4-0.8-0.6-1.1c-0.1-0.2-0.2-0.5-0.3-0.7c0-0.1,0-0.2,0.1-0.2
		c0.3-0.1,0.6-0.2,0.9-0.3c0.4-0.1,0.9-0.3,1.3-0.4c0.1,0,0.2-0.1,0.3-0.1c0,0,0.1,0,0.2,0c0.3,0.2,0.7,0.2,1,0.2
		c0.3,0,0.6,0.1,0.9,0.1c0,0,0.1,0,0.1,0.1c0.1,0.3,0.3,0.6,0.4,0.9c0.2,0.5,0.5,1,0.7,1.5c0.1,0.2,0.2,0.4,0.3,0.6
		c-0.3,0.1-0.6,0.1-0.8,0.2c-0.3,0.1-0.5,0.2-0.8,0.2c-0.3,0.1-0.5,0.1-0.8,0.2c-0.4,0.1-0.7,0.2-1,0.3c-0.2,0.1-0.4,0.1-0.7,0.2
		C15.5,7,15.5,7,15.4,6.8C15.4,6.7,15.4,6.7,15.3,6.6C15.3,6.6,15.3,6.6,15.3,6.6z"/>
	<path class="st2" d="M70.4,27.8c-0.4,0.5-0.7,0.9-1,1.3c-0.2,0.2-0.2,0.2-0.4,0.1c-0.4-0.2-0.7-0.4-1.1-0.5c-0.3-0.1-0.6-0.2-1-0.2
		c-0.1,0-0.2-0.1-0.1-0.3c0,0,0-0.1,0-0.1c0-0.1,0.1-0.3,0-0.4c0-0.2,0.1-0.4,0.1-0.6c0-0.1,0-0.3,0-0.4c0-0.1,0-0.1,0.1-0.2
		c0.4,0.1,0.8,0.1,1.2,0.2c0.4,0.1,0.8,0.2,1.1,0.5C69.7,27.4,70,27.6,70.4,27.8z"/>
	<path class="st3" d="M16.5,13c-0.4,0.1-0.7,0.2-1.1,0.3c-0.4,0.1-0.7,0.2-1.1,0.3c-0.2,0.1-0.3,0-0.4-0.2c-0.2-0.3-0.4-0.6-0.6-0.8
		c-0.2-0.3-0.4-0.6-0.6-0.9c0,0,0,0,0-0.1c0.2,0,0.3,0.1,0.5,0.1c0.6,0.2,1.1,0.3,1.7,0.5c0.4,0.1,0.9,0.2,1.3,0.3
		c0.2,0,0.2,0.2,0.3,0.3C16.4,12.8,16.4,12.9,16.5,13z"/>
	<path class="st4" d="M6.3,27C6.3,27.1,6.3,27.1,6.3,27C6.3,27.1,6.3,27.1,6.3,27z"/>
	<path class="st5" d="M77.2,29C77.2,29,77.2,29,77.2,29C77.2,29,77.1,29,77.2,29C77.1,29,77.2,29,77.2,29z"/>
	<path class="st6" d="M74.4,29.1C74.4,29.1,74.4,29.1,74.4,29.1C74.4,29.1,74.4,29.1,74.4,29.1C74.4,29.1,74.4,29.1,74.4,29.1z"/>
	<path class="st7" d="M98.3,30.3C98.3,30.3,98.3,30.3,98.3,30.3C98.3,30.3,98.3,30.3,98.3,30.3z"/>
</g>
</svg>
