<?xml version="1.0" encoding="utf-8"?>
<!-- Generator: Adobe Illustrator 27.1.1, SVG Export Plug-In . SVG Version: 6.00 Build 0)  -->
<svg version="1.1" id="Layer_1" xmlns="http://www.w3.org/2000/svg" xmlns:xlink="http://www.w3.org/1999/xlink" x="0px" y="0px"
	 viewBox="0 0 100 100" style="enable-background:new 0 0 100 100;" xml:space="preserve">
<style type="text/css">
	.st0{fill:#F42A41;}
	.st1{fill:#D43948;}
	.st2{fill:#D0B4B4;}
	.st3{fill:#CDAFAF;}
	.st4{fill:#006A4E;}
	.st5{fill:#F22A41;}
</style>
<g>
	<path class="st0" d="M1.5,48.4c0.1-1.2,0.1-2.4,0.2-3.5c0.1-0.8,0.1-1.5,0.3-2.3c0.4-2.5,1-4.9,1.7-7.2c0.9-2.9,2.1-5.6,3.5-8.3
		c1.5-2.8,3.2-5.4,5.2-7.8c1.4-1.7,2.9-3.3,4.5-4.8c1.5-1.4,3.2-2.7,4.8-3.9c1.3-1,2.7-1.9,4.2-2.7c2.2-1.3,4.5-2.4,7-3.2
		c1.8-0.6,3.6-1.2,5.4-1.7c1.2-0.3,2.4-0.5,3.6-0.7c1.2-0.2,2.4-0.3,3.7-0.5c0.5-0.1,0.9-0.1,1.4-0.1c0.4,0,0.9,0,1.3-0.1
		c0.1,0,0.3,0.1,0.4,0.1c0.7,0,1.4,0,2.1,0c0.2,0,0.4,0,0.6-0.1c1,0.1,2,0.1,2.9,0.2C55.2,1.8,56,1.9,56.7,2
		c0.9,0.1,1.8,0.2,2.7,0.4c1.6,0.3,3.1,0.7,4.6,1.2c1.4,0.4,2.9,1,4.3,1.5c1.5,0.6,3.1,1.3,4.6,2.1c2.1,1.1,4.1,2.3,6,3.8
		c1.4,1.1,2.7,2.2,4,3.3c1.1,1,2.2,2,3.1,3.1c2.3,2.5,4.2,5.2,5.9,8.1c1.5,2.6,2.8,5.3,3.8,8.2c0.7,2,1.2,4.1,1.7,6.2
		c0.3,1.3,0.5,2.5,0.6,3.8c0.2,1.3,0.2,2.6,0.3,3.9c0,0.2,0,0.5,0.1,0.7c0,0.1-0.1,0.3-0.1,0.4c0,0.7,0,1.4,0,2.1
		c0,0.2,0,0.4,0.1,0.6c-0.1,1-0.1,2-0.2,3c0,0.6-0.1,1.1-0.2,1.7c-0.1,0.9-0.2,1.8-0.4,2.7c-0.3,1.4-0.6,2.8-1,4.2
		c-0.5,1.8-1.1,3.6-1.8,5.3c-0.6,1.6-1.3,3.1-2.1,4.6c-1.3,2.4-2.8,4.7-4.5,6.9c-0.8,1.1-1.7,2.1-2.6,3.1c-1,1-1.9,2.1-3,3
		c-1.7,1.4-3.4,2.8-5.2,4.1c-2.3,1.6-4.7,3-7.3,4.1c-1.4,0.6-2.9,1.2-4.3,1.7c-1.2,0.4-2.3,0.8-3.5,1.1c-1.1,0.3-2.1,0.5-3.2,0.7
		c-1.6,0.3-3.2,0.5-4.7,0.7c-0.7,0.1-1.4,0.1-2.1,0.1c-0.1,0-0.2-0.1-0.2-0.1c-1.1,0-2.3,0-3.4,0c-0.1,0-0.2,0-0.3,0.1
		c0,0,0,0-0.1,0c0,0-0.1,0-0.1,0c-1.7-0.2-3.5-0.3-5.2-0.5c-3.2-0.4-6.2-1.2-9.2-2.3c-2.2-0.8-4.3-1.8-6.4-2.8
		c-3.1-1.6-5.9-3.5-8.5-5.8c-1.5-1.3-3-2.7-4.4-4.2c-2.2-2.3-4.1-4.9-5.8-7.6c-1.2-2-2.3-4.1-3.2-6.2c-1.3-2.9-2.2-6-2.9-9.1
		c-0.2-1.2-0.5-2.4-0.7-3.6c-0.1-1-0.2-2.1-0.3-3.1c0-0.5,0-1-0.1-1.5c0-0.1,0.1-0.3,0.1-0.4c0-0.8,0-1.7,0-2.5
		C1.6,48.7,1.5,48.5,1.5,48.4z M65.5,91.6c4.4-1.7,8.4-3.9,12.1-6.8c5.5-4.4,9.8-9.8,12.7-16.2c3.5-7.5,4.7-15.4,3.8-23.6
		c-1.2-10.3-5.5-19.2-12.9-26.4C73.1,10.5,63.3,6.2,52,5.7c-11.5-0.5-21.7,3-30.5,10.4C11.8,24.2,6.6,34.7,5.7,47.2
		c-0.7,9.7,1.7,18.7,7,26.9c4.7,7.2,10.9,12.6,18.7,16.2c0.1-0.5,0.1-0.9,0.2-1.4c0.1-1.8,0.2-3.6,0.3-5.4c0.1-1.3,0.1-2.7,0.2-4
		c0-0.4,0.1-0.8,0.1-1.1c0.1-1.1,0.2-2.1,0.4-3.2c0.1-0.9,0.1-1.8,0.2-2.8c0-0.5,0-0.9-0.4-1.2c-1.9-1.6-3.7-3.3-5.6-5
		c-0.8-0.8-1.6-1.6-2-2.7c-0.5-1.3-0.9-2.6-1.3-3.9c-0.2-0.8-0.5-1.6-0.7-2.4c-0.6-2.1-1.2-4.2-1.4-6.4c-0.1-1.3-0.1-2.7,0.3-4.1
		c0.2,0.1,0.3,0.2,0.5,0.3c0.6,0.5,1.3,1,1.9,1.5c2.7,2.1,5.4,4.2,8,6.3c0.3,0.3,0.6,0.2,0.9,0c2.2-1.5,4.3-2.9,6.5-4.4
		c1-0.7,2.1-1.1,3.4-1.2c1.4-0.1,2.8-0.4,4.2-0.5c1.1-0.1,2.2-0.3,3.3-0.4c0.7-0.1,1.5-0.2,2.3-0.2c0.6-0.1,1.2-0.1,1.9-0.2
		c-0.4,0.3-0.8,0.5-1.2,0.7c-1.9,1.2-3.7,2.5-5.3,4.1c-1.9,1.9-3.9,3.8-5.4,6.1c-2.1,3.2-3.3,6.6-3.2,10.5c0,0.5,0.2,0.7,0.6,0.8
		c0.3,0.1,0.7,0.2,1,0.3c0.8,0.1,1.5,0.3,2.3,0.3c0.7,0,1.4-0.2,2.3-0.3c-1.2,5.9-2.5,11.7-3.7,17.5c0,0,0.1,0,0.1,0
		c2.5-6.5,4.9-12.9,7.4-19.4c-1-0.2-2-0.3-2.9-0.4c-1-0.1-1.9-0.1-2.9-0.3c-1.1-0.2-1.4-0.4-1.1-1.6c0.2-0.9,0.4-1.8,0.8-2.7
		c1.1-3.1,3-5.8,5.2-8.3c2.4-2.6,5.2-4.7,8.1-6.6c1.6-1,3.2-2.2,5-2.6c2.4-0.6,4.8-1.2,7.3-1.3c0.3,0,0.7-0.1,1-0.2
		c-0.6-0.1-1.3-0.2-1.9-0.3c-0.6-0.1-1.2-0.2-1.9-0.3c-1-0.1-2.1-1.8-1.6-2.9c0.5-0.9,0.8-1.9,1.2-2.8c0.2-0.4,0.3-0.9,0.5-1.3
		c0,0-0.1,0-0.1-0.1c-0.3,0.2-0.5,0.5-0.8,0.7c-0.8,0.7-1.6,1.5-2.5,2.2c-1.1,0.8-2.3,1.6-3.8,1.3c-1.2-0.2-2.4-0.3-3.5-0.6
		c-2-0.7-3.9-1.5-5.8-2.3c-0.3-0.1-0.5-0.4-0.5-0.8c-0.1-0.7-0.2-1.4-0.3-2.2c-0.1-0.9-0.2-1.8-0.3-2.8c0-0.5,0.2-0.8,0.6-0.9
		c0.3-0.1,0.7-0.2,1-0.3c6-1.7,12-3.4,18-5.1c1.1-0.3,2.2-0.8,3.4-0.6c0.3,0.1,0.5,0.1,0.8,0.2c1.1,0.3,2,0.8,2.3,2
		c0.2,0.6,0.3,1.3,0.5,1.9c1.5,4.4,3.1,8.8,4.6,13.3c0.6,1.9,1.2,3.8,1.8,5.8c0.3,0.8,0.2,1.4-0.4,2.1c-2.9,2.8-5.8,5.7-8.6,8.5
		c-1.6,1.6-3.2,3.2-4.8,4.8c-1.6,1.5-3.1,3-4.7,4.5c-0.3,0.3-0.4,0.6-0.3,1.1c0.1,1,0.2,1.9,0.3,2.9c0.1,0.6,0.1,1.3,0.2,1.9
		c0.1,1,0.2,1.9,0.3,2.9c0.1,0.6,0.1,1.3,0.2,1.9c0.1,1.2,0.3,2.5,0.5,3.7c0.1,1.4,0.2,2.9,0.3,4.3C65.2,88.7,65.4,90.1,65.5,91.6z"
		/>
	<path class="st1" d="M48.2,98.5c0.1,0,0.2-0.1,0.3-0.1c1.1,0,2.3,0,3.4,0c0.1,0,0.2,0,0.2,0.1c-0.2,0-0.5,0.1-0.7,0.1
		c0,0-0.1-0.1-0.1-0.1c-1,0-1.9,0-2.9,0C48.4,98.5,48.3,98.5,48.2,98.5z"/>
	<path class="st1" d="M1.5,48.4c0,0.1,0.1,0.3,0.1,0.4c0,0.8,0,1.7,0,2.5c0,0.1,0,0.3-0.1,0.4c0-0.1,0-0.3,0-0.4c0-0.9,0-1.8,0-2.7
		C1.5,48.6,1.5,48.5,1.5,48.4z"/>
	<path class="st1" d="M51.5,1.5c-0.2,0-0.4,0.1-0.6,0.1c-0.7,0-1.4,0-2.1,0c-0.1,0-0.3,0-0.4-0.1c0.1,0,0.1,0,0.2,0
		c0.9,0,1.8,0,2.7,0C51.3,1.5,51.4,1.5,51.5,1.5z"/>
	<path class="st1" d="M98.5,51.5c0-0.2-0.1-0.4-0.1-0.6c0-0.7,0-1.4,0-2.1c0-0.1,0-0.3,0.1-0.4c0,0.1,0,0.2,0,0.2
		C98.5,49.6,98.5,50.5,98.5,51.5C98.5,51.4,98.5,51.5,98.5,51.5z"/>
	<path class="st2" d="M48.4,98.5c1,0,1.9,0,2.9,0c0,0,0.1,0,0.1,0.1c-0.9,0-1.8,0-2.7,0C48.6,98.6,48.5,98.5,48.4,98.5z"/>
	<path class="st3" d="M98.5,51.4c0-0.9,0-1.8,0-2.8c0,0.4,0.1,0.8,0.1,1.2C98.6,50.4,98.5,50.9,98.5,51.4z"/>
	<path class="st3" d="M51.3,1.5c-0.9,0-1.8,0-2.7,0c0.5,0,1-0.1,1.5-0.1C50.5,1.4,50.9,1.5,51.3,1.5z"/>
	<path class="st3" d="M1.5,48.7c0,0.9,0,1.8,0,2.7c0-0.4-0.1-0.9-0.1-1.3S1.5,49.1,1.5,48.7z"/>
	<path class="st2" d="M48.1,98.5C48.1,98.5,48.1,98.5,48.1,98.5C48.1,98.5,48.1,98.5,48.1,98.5z"/>
	<path class="st4" d="M65.5,91.6c-0.1-1.5-0.3-2.8-0.4-4.2c-0.1-1.4-0.2-2.9-0.3-4.3c-0.1-1.2-0.3-2.5-0.5-3.7
		c-0.1-0.6-0.1-1.3-0.2-1.9c-0.1-1-0.2-1.9-0.3-2.9c-0.1-0.6-0.1-1.3-0.2-1.9c-0.1-1-0.2-1.9-0.3-2.9c-0.1-0.4,0-0.8,0.3-1.1
		c1.6-1.5,3.1-3,4.7-4.5c1.6-1.6,3.2-3.2,4.8-4.8c2.9-2.9,5.7-5.7,8.6-8.5c0.6-0.6,0.7-1.3,0.4-2.1c-0.6-1.9-1.2-3.8-1.8-5.8
		c-1.5-4.4-3-8.9-4.6-13.3c-0.2-0.6-0.4-1.2-0.5-1.9c-0.3-1.2-1.2-1.7-2.3-2c-0.3-0.1-0.5-0.1-0.8-0.2c-1.2-0.3-2.3,0.3-3.4,0.6
		c-6,1.7-12,3.4-18,5.1c-0.3,0.1-0.7,0.2-1,0.3c-0.4,0.1-0.7,0.5-0.6,0.9c0.1,0.9,0.2,1.8,0.3,2.8c0.1,0.7,0.2,1.4,0.3,2.2
		c0,0.3,0.2,0.6,0.5,0.8c1.9,0.8,3.8,1.7,5.8,2.3c1.1,0.4,2.3,0.4,3.5,0.6c1.5,0.3,2.7-0.5,3.8-1.3c0.9-0.7,1.6-1.4,2.5-2.2
		c0.3-0.2,0.5-0.5,0.8-0.7c0,0,0.1,0,0.1,0.1c-0.2,0.4-0.3,0.9-0.5,1.3c-0.4,1-0.8,1.9-1.2,2.8c-0.6,1.1,0.6,2.7,1.6,2.9
		c0.6,0.1,1.3,0.2,1.9,0.3c0.6,0.1,1.3,0.2,1.9,0.3c-0.3,0.1-0.7,0.2-1,0.2c-2.5,0.1-4.9,0.7-7.3,1.3c-1.9,0.5-3.5,1.6-5,2.6
		c-2.9,1.9-5.7,4-8.1,6.6c-2.3,2.4-4.1,5.1-5.2,8.3c-0.3,0.9-0.6,1.8-0.8,2.7c-0.2,1.2,0,1.4,1.1,1.6c0.9,0.2,1.9,0.2,2.9,0.3
		c1,0.1,1.9,0.3,2.9,0.4c-2.5,6.5-4.9,13-7.4,19.4c0,0-0.1,0-0.1,0c1.2-5.8,2.5-11.6,3.7-17.5c-0.8,0.1-1.6,0.3-2.3,0.3
		c-0.8,0-1.5-0.2-2.3-0.3c-0.3-0.1-0.7-0.2-1-0.3c-0.5-0.1-0.6-0.4-0.6-0.8c0-3.8,1.1-7.3,3.2-10.5c1.5-2.3,3.4-4.2,5.4-6.1
		c1.6-1.6,3.4-2.9,5.3-4.1c0.4-0.2,0.7-0.5,1.2-0.7c-0.6,0.1-1.2,0.1-1.9,0.2c-0.8,0.1-1.5,0.1-2.3,0.2c-1.1,0.1-2.2,0.3-3.3,0.4
		c-1.4,0.2-2.8,0.4-4.2,0.5c-1.3,0.1-2.4,0.5-3.4,1.2c-2.2,1.4-4.3,2.9-6.5,4.4c-0.3,0.2-0.6,0.3-0.9,0c-2.7-2.1-5.4-4.2-8-6.3
		c-0.6-0.5-1.3-1-1.9-1.5c-0.1-0.1-0.3-0.2-0.5-0.3c-0.5,1.4-0.4,2.7-0.3,4.1c0.2,2.2,0.8,4.3,1.4,6.4c0.2,0.8,0.5,1.6,0.7,2.4
		c0.4,1.3,0.8,2.6,1.3,3.9c0.4,1.1,1.2,2,2,2.7c1.8,1.7,3.7,3.4,5.6,5c0.4,0.4,0.4,0.8,0.4,1.2c-0.1,0.9-0.1,1.8-0.2,2.8
		c-0.1,1.1-0.2,2.1-0.4,3.2c0,0.4-0.1,0.8-0.1,1.1c-0.1,1.3-0.1,2.7-0.2,4c-0.1,1.8-0.2,3.6-0.3,5.4c0,0.4-0.1,0.9-0.2,1.4
		c-7.8-3.6-14.1-9-18.7-16.2c-5.3-8.2-7.7-17.2-7-26.9c0.9-12.5,6.1-23,15.7-31.1C30.2,8.7,40.5,5.2,52,5.7
		c11.3,0.5,21.1,4.8,29.2,12.8c7.4,7.3,11.7,16.2,12.9,26.4c1,8.2-0.3,16.1-3.8,23.6c-2.9,6.4-7.2,11.8-12.7,16.2
		C73.9,87.6,69.9,89.9,65.5,91.6z M50.6,46.2c-0.1-0.2-0.2-0.5-0.3-0.7c-0.2-0.3-0.4-0.6-0.6-0.9c-2.8-4.7-5.5-9.4-8.3-14.1
		c-1.1-1.8-2.2-3.4-3.3-5.2c-0.5-0.8-0.9-0.9-1.8-0.6c-0.4,0.1-0.8,0.4-1.3,0.5c-2.4,0.9-4.4,2.4-6.1,4.2c-0.4,0.4-0.6,0.9-0.9,1.3
		c-0.2,0.3-0.2,0.6,0,0.9c0.6,1,1.1,2.1,1.7,3c2.9,4.4,6.1,8.4,9.5,12.4c0.5,0.6,1.1,0.8,1.9,0.6c0.7-0.1,1.4-0.2,2.2-0.4
		c1.4-0.2,2.8-0.4,4.2-0.6C48.5,46.7,49.5,46.4,50.6,46.2z M26,33.6c-0.6,0-1.1,0.2-1.6,0.5c-0.7,0.5-1.5,1.1-2.2,1.7
		c-1.2,1-2.2,2.2-3,3.6c-0.5,0.9-0.4,1.6,0.2,2.4c0.4,0.4,0.8,0.8,1.3,1.3c3.5,3.4,7.2,6.5,11,9.6c0.5,0.4,1.1,0.6,1.8,0.3
		c1.7-0.6,3-1.8,4.3-2.9c0.6-0.5,0.5-0.8,0.1-1.4c-1.4-1.9-2.9-3.9-4.3-5.8c-2.1-2.8-4.1-5.5-6.2-8.2C27.1,34,26.7,33.5,26,33.6z
		 M57.7,27.6c0.2,0,0.3,0,0.4-0.1c1-0.3,2-0.6,3.1-0.9c2.5-0.7,5-1.3,7.5-2c1-0.3,1-0.3,0.6-1.2c-0.9-2.1-1.8-4.1-2.8-6.2
		c-0.5-1.1-1.1-2.1-1.6-3.2c-0.3-0.5-0.5-0.7-1.1-0.5c-0.5,0.1-0.9,0.3-1.4,0.5c-3,0.9-6,1.7-9,2.8c-1,0.4-1.1,0.7-0.7,1.6
		c1.5,3,3,5.9,4.5,8.9C57.5,27.4,57.7,27.5,57.7,27.6z M47.3,36.4C47.4,36.4,47.4,36.4,47.3,36.4c0.1-0.1,0.1-0.2,0.1-0.3
		c-0.1-1.4-0.2-2.8-0.3-4.2c-0.1-0.7,0.3-1.1,0.9-1.4c0.5-0.2,0.9-0.3,1.4-0.4c1.9-0.6,3.9-1.1,5.8-1.7c0.2-0.1,0.4-0.2,0.2-0.5
		c-0.1-0.1-0.1-0.2-0.1-0.3c-0.7-1.4-1.4-2.8-2.1-4.2c-0.7-1.5-1.4-3-2.1-4.5c-0.1-0.2-0.4-0.5-0.6-0.5c-0.7,0-1.5,0-2.2,0.2
		c-3,0.8-5.7,2.1-8.1,4c-1.1,0.9-1.4,0.8-0.4,2.3c1.8,2.8,3.6,5.6,5.5,8.4C45.9,34.3,46.6,35.4,47.3,36.4z M49.8,40.3
		c0,0-0.1,0.1-0.1,0.1c0.3,0.4,0.5,0.8,0.8,1.2c0.9,1.4,1.8,2.7,2.7,4.1c0.4,0.6,0.6,0.6,1.3,0.4c1.3-0.4,2.6-0.8,3.8-1.1
		c0.6-0.2,1.3-0.3,2-0.5c-0.1-0.3-0.2-0.6-0.3-0.9c-0.1-0.4-0.4-0.6-0.8-0.8c-2.1-0.6-4.2-1.2-6.3-1.7
		C51.8,40.8,50.8,40.6,49.8,40.3z"/>
	<path class="st0" d="M50.6,46.2c-1.1,0.2-2.2,0.5-3.2,0.7c-1.4,0.2-2.8,0.4-4.2,0.6c-0.7,0.1-1.4,0.2-2.2,0.4
		c-0.8,0.2-1.4,0-1.9-0.6c-3.4-3.9-6.6-8-9.5-12.4c-0.6-1-1.1-2-1.7-3c-0.2-0.3-0.2-0.6,0-0.9c0.3-0.5,0.5-0.9,0.9-1.3
		c1.7-1.8,3.7-3.4,6.1-4.2c0.4-0.2,0.8-0.4,1.3-0.5c0.9-0.3,1.3-0.1,1.8,0.6c1.1,1.7,2.3,3.4,3.3,5.2c2.8,4.7,5.6,9.4,8.3,14.1
		c0.2,0.3,0.4,0.6,0.6,0.9C50.4,45.7,50.5,46,50.6,46.2z"/>
	<path class="st0" d="M26,33.6c0.7-0.1,1,0.4,1.4,0.9c2.1,2.7,4.1,5.5,6.2,8.2c1.4,1.9,2.9,3.9,4.3,5.8c0.4,0.6,0.5,0.9-0.1,1.4
		c-1.3,1.2-2.6,2.3-4.3,2.9c-0.7,0.2-1.2,0.1-1.8-0.3c-3.8-3-7.5-6.1-11-9.6c-0.4-0.4-0.9-0.8-1.3-1.3c-0.7-0.7-0.7-1.5-0.2-2.4
		c0.8-1.4,1.8-2.5,3-3.6c0.7-0.6,1.4-1.2,2.2-1.7C24.9,33.8,25.4,33.5,26,33.6z"/>
	<path class="st0" d="M57.7,27.6c-0.1-0.1-0.3-0.2-0.4-0.3c-1.5-3-3-5.9-4.5-8.9c-0.5-0.9-0.3-1.2,0.7-1.6c2.9-1.1,5.9-2,9-2.8
		c0.5-0.1,0.9-0.3,1.4-0.5c0.6-0.2,0.8,0,1.1,0.5c0.5,1.1,1.1,2.1,1.6,3.2c0.9,2,1.9,4.1,2.8,6.2c0.4,0.9,0.4,1-0.6,1.2
		c-2.5,0.7-5,1.3-7.5,2c-1,0.3-2,0.6-3.1,0.9C58.1,27.6,58,27.6,57.7,27.6z"/>
	<path class="st0" d="M47.3,36.4c-0.7-1-1.4-2.1-2.1-3.1c-1.8-2.8-3.7-5.6-5.5-8.4c-0.9-1.5-0.7-1.4,0.4-2.3c2.4-1.9,5.2-3.2,8.1-4
		c0.7-0.2,1.4-0.2,2.2-0.2c0.2,0,0.5,0.3,0.6,0.5c0.7,1.5,1.4,3,2.1,4.5c0.7,1.4,1.4,2.8,2.1,4.2c0.1,0.1,0.1,0.2,0.1,0.3
		c0.1,0.3,0,0.4-0.2,0.5c-1.9,0.6-3.9,1.1-5.8,1.7c-0.5,0.1-1,0.3-1.4,0.4c-0.6,0.2-1,0.7-0.9,1.4c0.1,1.4,0.2,2.8,0.3,4.2
		C47.4,36.2,47.4,36.3,47.3,36.4C47.4,36.4,47.4,36.4,47.3,36.4z"/>
	<path class="st5" d="M49.8,40.3c1,0.3,2,0.5,3.1,0.8c2.1,0.6,4.2,1.2,6.3,1.7c0.4,0.1,0.7,0.3,0.8,0.8c0.1,0.3,0.2,0.6,0.3,0.9
		c-0.7,0.2-1.3,0.3-2,0.5c-1.3,0.4-2.6,0.7-3.8,1.1c-0.7,0.2-0.9,0.1-1.3-0.4c-0.9-1.4-1.8-2.7-2.7-4.1c-0.3-0.4-0.5-0.8-0.8-1.2
		C49.7,40.4,49.7,40.3,49.8,40.3z"/>
</g>
<g>
</g>
<g>
</g>
<g>
</g>
<g>
</g>
<g>
</g>
<g>
</g>
<g>
</g>
<g>
</g>
<g>
</g>
<g>
</g>
<g>
</g>
</svg>
